<svg xmlns="http://www.w3.org/2000/svg" width="22" height="18" viewBox="0 0 22 18">
  <path id="_8665779_link_connection_icon" data-name="8665779_link_connection_icon" d="M20.577,1.456A4.843,4.843,0,0,0,17.139,0,4.788,4.788,0,0,0,13.7,1.456L12.213,2.98a5.945,5.945,0,0,1,1.441,1.055c.108.111.2.229.3.346l1.3-1.335a2.564,2.564,0,0,1,1.881-.8,2.612,2.612,0,0,1,1.881.8,2.764,2.764,0,0,1,0,3.847L14.438,11.58a2.733,2.733,0,0,1-1.877.8,2.617,2.617,0,0,1-1.881-.8,2.726,2.726,0,0,1-.032-3.848l.153-.123a1.625,1.625,0,0,0-.258-.39,1.529,1.529,0,0,0-2.19-.012,5.04,5.04,0,0,0,.77,5.963,4.785,4.785,0,0,0,6.874,0l4.58-4.686A5.017,5.017,0,0,0,22,4.852,4.951,4.951,0,0,0,20.577,1.456ZM8.044,13.62l-1.3,1.332a2.737,2.737,0,0,1-1.88.8,2.612,2.612,0,0,1-1.881-.8,2.764,2.764,0,0,1,0-3.847L7.562,6.42a2.616,2.616,0,0,1,3.758,0,2.764,2.764,0,0,1,0,3.847l-.121.124a1.589,1.589,0,0,0,.257.392,1.533,1.533,0,0,0,2.191.01,5.04,5.04,0,0,0-.77-5.963A4.843,4.843,0,0,0,9.439,3.375,4.784,4.784,0,0,0,6.005,4.83L1.423,9.517a5.05,5.05,0,0,0,0,7.029,4.786,4.786,0,0,0,6.873,0l1.49-1.524a5.945,5.945,0,0,1-1.441-1.055C8.236,13.855,8.143,13.736,8.044,13.62Z" fill="#0a2646"/>
</svg>
