<svg xmlns="http://www.w3.org/2000/svg" width="33" height="21.206" viewBox="0 0 33 21.206">
  <g id="_2290851_download_document_download_pdf_pdf_icon" data-name="2290851_download_document_download pdf_pdf_icon" transform="translate(0.5 0.706)">
    <line id="Line_1" data-name="Line 1" x2="7.16" transform="translate(7.702)" fill="none" stroke="#000" stroke-linecap="round" stroke-linejoin="round" stroke-width="1"/>
    <path id="Path_10" data-name="Path 10" d="M233.206,126.169a.946.946,0,0,1,.945.937" transform="translate(-218.405 -126.169)" fill="none" stroke="#000" stroke-linecap="round" stroke-linejoin="round" stroke-width="1"/>
    <line id="Line_2" data-name="Line 2" y2="13.052" transform="translate(15.74 0.937)" fill="none" stroke="#000" stroke-linecap="round" stroke-linejoin="round" stroke-width="1"/>
    <path id="Path_11" data-name="Path 11" d="M234.151,321.88a.946.946,0,0,1-.945.937" transform="translate(-218.405 -305.974)" fill="none" stroke="#000" stroke-linecap="round" stroke-linejoin="round" stroke-width="1"/>
    <line id="Line_3" data-name="Line 3" x1="10.302" transform="translate(4.675 17.224)" fill="none" stroke="#000" stroke-linecap="round" stroke-linejoin="round" stroke-width="1"/>
    <path id="Path_12" data-name="Path 12" d="M77.822,322.817a.946.946,0,0,1-.943-.937" transform="translate(-73.147 -305.974)" fill="none" stroke="#000" stroke-linecap="round" stroke-linejoin="round" stroke-width="1"/>
    <path id="Path_13" data-name="Path 13" d="M76.879,140.158V129.924l4.084-3.755" transform="translate(-73.147 -126.169)" fill="none" stroke="#000" stroke-linecap="round" stroke-linejoin="round" stroke-width="1"/>
    <line id="Line_4" data-name="Line 4" y2="3.379" transform="translate(7.918)" fill="none" stroke="#000" stroke-linecap="round" stroke-linejoin="round" stroke-width="1"/>
    <path id="Path_14" data-name="Path 14" d="M129.808,173.437a.509.509,0,0,1-.506.5" transform="translate(-121.886 -169.607)" fill="none" stroke="#000" stroke-linecap="round" stroke-linejoin="round" stroke-width="1"/>
    <line id="Line_5" data-name="Line 5" x1="3.771" transform="translate(3.732 4.386)" fill="none" stroke="#000" stroke-linecap="round" stroke-linejoin="round" stroke-width="1"/>
    <line id="Line_6" data-name="Line 6" x2="12.655" transform="translate(17.957 9.617)" fill="none" stroke="#000" stroke-linecap="round" stroke-linejoin="round" stroke-width="1"/>
    <path id="Path_18" data-name="Path 18" d="M455.706,245.262a1.383,1.383,0,0,1,1.388,1.379" transform="translate(-425.094 -235.551)" fill="none" stroke="#000" stroke-linecap="round" stroke-linejoin="round" stroke-width="1" fill-rule="evenodd"/>
    <line id="Line_7" data-name="Line 7" y2="6.434" transform="translate(32 12.189)" fill="none" stroke="#000" stroke-linecap="round" stroke-linejoin="round" stroke-width="1"/>
    <path id="Path_19" data-name="Path 19" d="M457.094,354.563a1.382,1.382,0,0,1-1.388,1.377" transform="translate(-425.094 -335.94)" fill="none" stroke="#000" stroke-linecap="round" stroke-linejoin="round" stroke-width="1" fill-rule="evenodd"/>
    <line id="Line_8" data-name="Line 8" x1="29.224" transform="translate(1.388 20)" fill="none" stroke="#000" stroke-linecap="round" stroke-linejoin="round" stroke-width="1"/>
    <path id="Path_20" data-name="Path 20" d="M26.388,355.939A1.383,1.383,0,0,1,25,354.562" transform="translate(-25 -335.939)" fill="none" stroke="#000" stroke-linecap="round" stroke-linejoin="round" stroke-width="1" fill-rule="evenodd"/>
    <line id="Line_9" data-name="Line 9" y1="6.434" transform="translate(0 12.189)" fill="none" stroke="#000" stroke-linecap="round" stroke-linejoin="round" stroke-width="1"/>
    <path id="Path_21" data-name="Path 21" d="M25,246.641a1.384,1.384,0,0,1,1.388-1.379" transform="translate(-25 -235.551)" fill="none" stroke="#000" stroke-linecap="round" stroke-linejoin="round" stroke-width="1" fill-rule="evenodd"/>
    <line id="Line_10" data-name="Line 10" y2="7.646" transform="translate(9.838 5.731)" fill="none" stroke="#000" stroke-linecap="round" stroke-linejoin="round" stroke-width="1"/>
    <line id="Line_11" data-name="Line 11" y1="2.643" x2="2.659" transform="translate(9.828 11.577)" fill="none" stroke="#000" stroke-linecap="round" stroke-linejoin="round" stroke-width="1"/>
    <line id="Line_12" data-name="Line 12" x1="2.909" y1="2.893" transform="translate(6.954 11.314)" fill="none" stroke="#000" stroke-linecap="round" stroke-linejoin="round" stroke-width="1"/>
    <g id="Group_76" data-name="Group 76" transform="translate(17.229 12.436)">
      <path id="Path_39" data-name="Path 39" d="M10.78,27.29a2.55,2.55,0,1,1,0-5.1A2.61,2.61,0,0,1,12,22.5a2.32,2.32,0,0,1,.88.85l-.84.48a1.25,1.25,0,0,0-.51-.51,1.664,1.664,0,0,0-1.91.26,1.75,1.75,0,0,0,0,2.32,1.51,1.51,0,0,0,1.15.44,1.61,1.61,0,0,0,.76-.18,1.2,1.2,0,0,0,.51-.51l.84.48A2.32,2.32,0,0,1,12,27a2.44,2.44,0,0,1-1.22.29Z" transform="translate(-8.229 -22.189)"/>
      <path id="Path_40" data-name="Path 40" d="M15.15,27.29A2.16,2.16,0,0,1,13.93,27a1.69,1.69,0,0,1-.7-.88l.82-.48a1.12,1.12,0,0,0,1.13.74,1,1,0,0,0,.6-.14.47.47,0,0,0,.19-.37.45.45,0,0,0-.24-.41,3.53,3.53,0,0,0-.82-.31,5.15,5.15,0,0,1-.56-.19,2.68,2.68,0,0,1-.45-.27,1.07,1.07,0,0,1-.35-.41,1.38,1.38,0,0,1-.12-.59,1.32,1.32,0,0,1,.47-1.06,1.76,1.76,0,0,1,1.14-.4,1.92,1.92,0,0,1,1.05.29,2,2,0,0,1,.7.81l-.81.47a1,1,0,0,0-.94-.63.73.73,0,0,0-.47.14.44.44,0,0,0-.17.35.45.45,0,0,0,.19.38,2.77,2.77,0,0,0,.74.31l.34.11.31.11a1.72,1.72,0,0,1,.31.16,1.51,1.51,0,0,1,.25.18.93.93,0,0,1,.21.25,1.42,1.42,0,0,1,.13.3,1.6,1.6,0,0,1,.05.39,1.31,1.31,0,0,1-.49,1.08A2,2,0,0,1,15.15,27.29Z" transform="translate(-8.229 -22.189)"/>
      <path id="Path_41" data-name="Path 41" d="M18.63,27.19,17,22.29h1l1.2,3.77,1.19-3.77h1.05l-1.65,4.9Z" transform="translate(-8.229 -22.189)"/>
    </g>
  </g>
</svg>
