<svg xmlns="http://www.w3.org/2000/svg" width="22" height="22" viewBox="0 0 22 22">
  <path id="_9055226_bxs_dashboard_icon" data-name="9055226_bxs_dashboard_icon" d="M4.222,15.222h7.333A1.222,1.222,0,0,0,12.778,14V4.222A1.222,1.222,0,0,0,11.556,3H4.222A1.222,1.222,0,0,0,3,4.222V14a1.222,1.222,0,0,0,1.222,1.222ZM3,23.778A1.222,1.222,0,0,0,4.222,25h7.333a1.222,1.222,0,0,0,1.222-1.222V18.889a1.222,1.222,0,0,0-1.222-1.222H4.222A1.222,1.222,0,0,0,3,18.889Zm12.222,0A1.222,1.222,0,0,0,16.444,25h7.333A1.222,1.222,0,0,0,25,23.778V15.222A1.222,1.222,0,0,0,23.778,14H16.444a1.222,1.222,0,0,0-1.222,1.222Zm1.222-12.222h7.333A1.222,1.222,0,0,0,25,10.333V4.222A1.222,1.222,0,0,0,23.778,3H16.444a1.222,1.222,0,0,0-1.222,1.222v6.111A1.222,1.222,0,0,0,16.444,11.556Z" transform="translate(-3 -3)" fill="#0a2646"/>
</svg>
