<svg id="_3586371_calendar_date_schedule_icon" data-name="3586371_calendar_date_schedule_icon" xmlns="http://www.w3.org/2000/svg" width="14" height="14" viewBox="0 0 14 14">
  <path id="Path_3" data-name="Path 3" d="M22.688,42.441H21.246a.222.222,0,0,0-.222.222v1.443a.222.222,0,0,0,.222.222h1.443a.222.222,0,0,0,.222-.222V42.663A.222.222,0,0,0,22.688,42.441Zm-.222,1.443h-1v-1h1Z" transform="translate(-18.832 -36.541)" fill="#818795"/>
  <path id="Path_4" data-name="Path 4" d="M45.456,42.441H44.014a.222.222,0,0,0-.222.222v1.443a.222.222,0,0,0,.222.222h1.443a.222.222,0,0,0,.222-.222V42.663A.222.222,0,0,0,45.456,42.441Zm-.222,1.443h-1v-1h1Z" transform="translate(-37.727 -36.541)" fill="#818795"/>
  <path id="Path_5" data-name="Path 5" d="M67.522,42.441H66.08a.222.222,0,0,0-.222.222v1.443a.222.222,0,0,0,.222.222h1.443a.222.222,0,0,0,.222-.222V42.663A.222.222,0,0,0,67.522,42.441ZM67.3,43.884h-1v-1h1Z" transform="translate(-56.055 -36.541)" fill="#818795"/>
  <path id="Path_6" data-name="Path 6" d="M22.688,64.677H21.246a.222.222,0,0,0-.222.222v1.443a.222.222,0,0,0,.222.222h1.443a.222.222,0,0,0,.222-.222V64.9A.222.222,0,0,0,22.688,64.677Zm-.222,1.443h-1v-1h1Z" transform="translate(-18.832 -55.228)" fill="#818795"/>
  <path id="Path_7" data-name="Path 7" d="M45.456,64.677H44.014a.222.222,0,0,0-.222.222v1.443a.222.222,0,0,0,.222.222h1.443a.222.222,0,0,0,.222-.222V64.9A.222.222,0,0,0,45.456,64.677Zm-.222,1.443h-1v-1h1Z" transform="translate(-37.727 -55.228)" fill="#818795"/>
  <path id="Path_8" data-name="Path 8" d="M67.522,64.677H66.08a.222.222,0,0,0-.222.222v1.443a.222.222,0,0,0,.222.222h1.443a.222.222,0,0,0,.222-.222V64.9A.222.222,0,0,0,67.522,64.677ZM67.3,66.12h-1v-1h1Z" transform="translate(-56.055 -55.228)" fill="#818795"/>
  <path id="Path_9" data-name="Path 9" d="M23.493,6.725H21.769V6.41a1.032,1.032,0,0,0-2.055,0v.315H17.778V6.41a1.032,1.032,0,0,0-2.055,0v.315H13.788V6.41a1.032,1.032,0,0,0-2.055,0v.315h-1.72a.249.249,0,0,0-.26.237V19.237a.249.249,0,0,0,.26.237h13.48a.249.249,0,0,0,.26-.237V6.961A.249.249,0,0,0,23.493,6.725ZM20.234,6.41a.51.51,0,0,1,1.015,0V7.717a.51.51,0,0,1-1.015,0Zm-3.483-.462a.487.487,0,0,1,.507.462V7.717a.51.51,0,0,1-1.015,0V6.983c0-.007,0-.015,0-.022s0-.015,0-.022V6.41A.487.487,0,0,1,16.751,5.948Zm-4.5.462a.51.51,0,0,1,1.015,0V7.717a.51.51,0,0,1-1.015,0ZM23.233,19H10.273V7.2h1.46v.519a1.032,1.032,0,0,0,2.055,0V7.2h1.936v.518a1.032,1.032,0,0,0,2.055,0V7.2h1.935v.518a1.032,1.032,0,0,0,2.055,0V7.2h1.464Z" transform="translate(-9.753 -5.474)" fill="#818795"/>
</svg>
