<svg xmlns="http://www.w3.org/2000/svg" width="14" height="20" viewBox="0 0 14 20">
  <g id="_370086_bin_delete_empty_out_recycle_icon_1_" data-name="370086_bin_delete_empty_out_recycle_icon (1)" transform="translate(-67.363 -7.304)">
    <path id="Path_42" data-name="Path 42" d="M81.363,9.7H77.679V8.9a1.541,1.541,0,0,0-1.474-1.6H72.521a1.541,1.541,0,0,0-1.474,1.6v.8H67.363v.8h.759l.738,15.2a1.541,1.541,0,0,0,1.474,1.6h8.105a1.541,1.541,0,0,0,1.474-1.6l.725-15.2h.726V9.7Zm-9.579-.8a.771.771,0,0,1,.737-.8h3.684a.771.771,0,0,1,.737.8v.8H71.784Zm7.393,16.759V25.7a.771.771,0,0,1-.737.8H70.333a.772.772,0,0,1-.737-.8v-.042L68.86,10.5H79.9Z"/>
    <rect id="Rectangle_54" data-name="Rectangle 54" width="0.777" height="12.424" transform="translate(73.975 12.55)"/>
    <path id="Path_43" data-name="Path 43" d="M168.292,138.893l-.795-12.4-.775.049.795,12.4Z" transform="translate(-95.698 -113.943)"/>
    <path id="Path_44" data-name="Path 44" d="M307.335,125.939l-.775-.049-.783,12.424.775.049Z" transform="translate(-229.628 -113.365)"/>
  </g>
</svg>
