<svg xmlns="http://www.w3.org/2000/svg" width="22" height="21" viewBox="0 0 22 21">
  <g id="_2303205_adjust_configuration_filter_options_preferences_icon" data-name="2303205_adjust_configuration_filter_options_preferences_icon" transform="translate(1 0.5)">
    <line id="Line_13" data-name="Line 13" x2="11.07" transform="translate(8.93 2.58)" fill="none" stroke="#000" stroke-linecap="round" stroke-linejoin="round" stroke-width="2"/>
    <line id="Line_14" data-name="Line 14" x2="3.019" transform="translate(0 2.58)" fill="none" stroke="#000" stroke-linecap="round" stroke-linejoin="round" stroke-width="2"/>
    <line id="Line_15" data-name="Line 15" x2="3.019" transform="translate(16.981 10.042)" fill="none" stroke="#000" stroke-linecap="round" stroke-linejoin="round" stroke-width="2"/>
    <line id="Line_16" data-name="Line 16" x2="11.07" transform="translate(0 10.042)" fill="none" stroke="#000" stroke-linecap="round" stroke-linejoin="round" stroke-width="2"/>
    <line id="Line_17" data-name="Line 17" x2="9.057" transform="translate(10.943 17.5)" fill="none" stroke="#000" stroke-linecap="round" stroke-linejoin="round" stroke-width="2"/>
    <line id="Line_18" data-name="Line 18" x2="5.032" transform="translate(0 17.5)" fill="none" stroke="#000" stroke-linecap="round" stroke-linejoin="round" stroke-width="2"/>
    <path id="Path_22" data-name="Path 22" d="M14.532,8.92a2.608,2.608,0,0,1-2.516,2.58A2.608,2.608,0,0,1,9.5,8.92a2.516,2.516,0,0,1,5.032,0Z" transform="translate(-6.007 -6.42)" fill="none" stroke="#000" stroke-linecap="round" stroke-linejoin="round" stroke-width="1"/>
    <path id="Path_23" data-name="Path 23" d="M22.532,15.92a2.516,2.516,0,1,1-2.516-2.5A2.508,2.508,0,0,1,22.532,15.92Z" transform="translate(-6.024 -5.963)" fill="none" stroke="#000" stroke-linecap="round" stroke-linejoin="round" stroke-width="1"/>
    <path id="Path_24" data-name="Path 24" d="M21.013,16a1.006,1.006,0,1,1-1.006-1A1,1,0,0,1,21.013,16Z" transform="translate(-6.009 -5.958)"/>
    <path id="Path_25" data-name="Path 25" d="M16.532,22.92a2.608,2.608,0,0,1-2.516,2.58A2.608,2.608,0,0,1,11.5,22.92a2.516,2.516,0,0,1,5.032,0Z" transform="translate(-6.012 -5.5)" fill="none" stroke="#000" stroke-linecap="round" stroke-linejoin="round" stroke-width="1"/>
  </g>
</svg>
