<svg id="Component_7_1" data-name="Component 7 – 1" xmlns="http://www.w3.org/2000/svg" width="40" height="40" viewBox="0 0 40 40">
  <rect id="Rectangle_15" data-name="Rectangle 15" width="40" height="40" rx="5"/>
  <path id="_8726195_save_floppy_icon" data-name="8726195_save_floppy_icon" d="M26.613,11.387l-8-8a1.333,1.333,0,0,0-.427-.28A1.453,1.453,0,0,0,17.667,3H7A4,4,0,0,0,3,7V23a4,4,0,0,0,4,4H23a4,4,0,0,0,4-4V12.333A1.333,1.333,0,0,0,26.613,11.387ZM11,5.667h5.333V8.333H11Zm8,18.667H11v-4A1.333,1.333,0,0,1,12.333,19h5.333A1.333,1.333,0,0,1,19,20.333ZM24.333,23A1.333,1.333,0,0,1,23,24.333H21.667v-4a4,4,0,0,0-4-4H12.333a4,4,0,0,0-4,4v4H7A1.333,1.333,0,0,1,5.667,23V7A1.333,1.333,0,0,1,7,5.667H8.333v4A1.333,1.333,0,0,0,9.667,11h8A1.333,1.333,0,0,0,19,9.667V7.547l5.333,5.333Z" transform="translate(5 5)" fill="#fff"/>
</svg>
