<svg id="Component_5_1" data-name="Component 5 – 1" xmlns="http://www.w3.org/2000/svg" width="40" height="40" viewBox="0 0 40 40">
  <rect id="Rectangle_15" data-name="Rectangle 15" width="40" height="40" rx="5"/>
  <g id="icons" transform="translate(8 8)">
    <path id="search" d="M22.4,19.6l-4.8-4.8A8.718,8.718,0,0,0,19,10a9,9,0,1,0-9,9,8.718,8.718,0,0,0,4.8-1.4l4.8,4.8A1.974,1.974,0,0,0,21,23a2.006,2.006,0,0,0,2-2A1.678,1.678,0,0,0,22.4,19.6ZM5,10a5,5,0,1,1,5,5A4.951,4.951,0,0,1,5,10Z" fill="#fff"/>
  </g>
</svg>
